<mxfile host="app.diagrams.net" modified="2024-04-09T10:01:44.632Z" agent="Mozilla/5.0 (Windows NT 10.0; Win64; x64) AppleWebKit/537.36 (KHTML, like Gecko) Chrome/123.0.0.0 Safari/537.36" version="24.2.2" etag="2423wQ4J4Z0O4GE1rQ77" type="github">
  <diagram name="Seite-1" id="HinQPX87XEaew3__dYcA">
    <mxGraphModel>
      <root>
        <mxCell id="0" />
        <mxCell id="1" parent="0" />
      </root>
    </mxGraphModel>
  </diagram>
</mxfile>
